<svg width="34" height="34" viewBox="0 0 34 34" fill="none" xmlns="http://www.w3.org/2000/svg">
<path d="M21.7436 33.9997C23.1445 33.9997 24.2802 32.8158 24.2802 31.3553C24.2802 29.8948 23.1445 28.7108 21.7436 28.7108C20.3427 28.7108 19.207 29.8948 19.207 31.3553C19.207 32.8158 20.3427 33.9997 21.7436 33.9997Z" fill="white"/>
<path d="M10.146 33.9997C11.5469 33.9997 12.6825 32.8158 12.6825 31.3553C12.6825 29.8948 11.5469 28.7108 10.146 28.7108C8.74504 28.7108 7.60938 29.8948 7.60938 31.3553C7.60938 32.8158 8.74504 33.9997 10.146 33.9997Z" fill="white"/>
<path d="M5.20361 5.95395L4.91371 9.65619C4.85573 10.3664 5.39204 10.9558 6.07329 10.9558H28.2647C28.8735 10.9558 29.3808 10.4722 29.4243 9.83752C29.6127 7.16284 27.6559 4.98683 25.0904 4.98683H7.27635C7.13141 4.32194 6.84151 3.68727 6.39218 3.15838C5.66744 2.35748 4.65281 1.88904 3.60919 1.88904H1.0871C0.492821 1.88904 0 2.40282 0 3.02238C0 3.64194 0.492821 4.15572 1.0871 4.15572H3.60919C4.05852 4.15572 4.47887 4.35216 4.78326 4.68461C5.08765 5.03217 5.2326 5.4855 5.20361 5.95395Z" fill="white"/>
<path d="M27.9192 13.2225H5.68424C5.07546 13.2225 4.58264 13.7061 4.52466 14.3257L4.00285 20.899C3.79993 23.483 5.74222 25.6893 8.22082 25.6893H24.339C26.5132 25.6893 28.4265 23.8306 28.5859 21.5639L29.0642 14.507C29.1222 13.8119 28.6004 13.2225 27.9192 13.2225Z" fill="white"/>
</svg>
