<svg width="100" height="100" viewBox="0 0 100 100" fill="none" xmlns="http://www.w3.org/2000/svg">
<path d="M40.0869 47.4909L30.8784 56.7384C30.1859 57.4319 30.1859 58.5365 30.8784 59.23C31.2119 59.564 31.6736 59.7438 32.1096 59.7438C32.5713 59.7438 33.0074 59.564 33.3665 59.23L42.575 49.9826C43.2675 49.289 43.2675 48.1845 42.575 47.4909C41.8824 46.823 40.7794 46.823 40.0869 47.4909Z" fill="white"/>
<path d="M74.2486 57.4323L54.8057 37.8071L57.5759 35.0072C60.064 36.4971 63.2446 36.7026 64.7324 36.7026C65.0915 36.7026 65.3479 36.6769 65.4762 36.6769C65.9636 36.6512 66.4253 36.3943 66.7587 36.009L74.3512 26.2992C74.9668 25.5286 74.8129 24.424 74.0691 23.8332C73.2995 23.2167 72.1966 23.3708 71.6066 24.1157L64.5015 33.1834C63.3729 33.1577 61.6287 32.9779 60.1922 32.3871L70.2728 22.3176C70.9397 21.6241 70.9397 20.5195 70.2728 19.8259C69.5803 19.1581 68.4773 19.1581 67.7847 19.8259L57.7042 29.9211C57.1399 28.5083 56.9603 26.7615 56.9347 25.6056L66.1431 18.5159C66.9126 17.9251 67.0665 16.8205 66.4766 16.0499C65.861 15.2793 64.758 15.1251 63.9885 15.716L54.1131 23.3451C53.7284 23.6534 53.4719 24.1157 53.4462 24.6295C53.4206 25.1689 53.241 29.433 55.1135 32.5412L52.3176 35.3155L33.0799 15.8958C32.7721 15.5618 32.3104 15.3563 31.8487 15.3563C31.387 15.3563 30.9253 15.5618 30.5918 15.8701L30.3353 16.1526C30.0532 16.4352 29.8736 16.8205 29.8223 17.2315C29.7881 17.7624 29.771 18.3018 29.771 18.8498C29.7966 24.7066 32.6951 31.5394 38.3895 39.1943C42.5192 44.7941 46.6232 48.6986 46.7771 48.8784C47.1619 49.2124 47.6749 49.3922 48.1879 49.3408L51.6507 48.9555C52.6254 48.8271 53.318 47.9794 53.2154 47.0032C53.0871 46.0271 52.215 45.3336 51.2659 45.462L48.624 45.7446C45.982 43.0988 35.1319 31.6165 33.4903 21.2901L71.7605 59.924C72.094 60.2579 72.5557 60.4378 73.0174 60.4378C73.4534 60.4378 73.8895 60.2579 74.2486 59.924C74.9412 59.2305 74.9412 58.1259 74.2486 57.4323Z" fill="white"/>
<path d="M28.3645 62.6206C27.9798 62.6206 27.6207 62.4665 27.3129 62.2096C20.2077 55.7621 16.1293 46.566 16.1293 36.9846C16.1293 18.2328 31.34 3.00012 50.0647 3.00012C68.7894 3.00012 84 18.2328 84 36.9846C84 45.0761 80.5629 53.2704 74.3042 60.0262C73.7143 60.6684 72.7139 60.6941 72.0726 60.1033C71.457 59.5124 71.4057 58.5106 71.9957 57.8684C77.7157 51.7035 80.8707 44.2798 80.8707 36.9846C80.8707 19.9795 67.0452 6.13399 50.0647 6.13399C33.0842 6.13399 19.2587 19.9795 19.2587 36.9846C19.2587 45.6926 22.978 54.041 29.4162 59.8721C30.0574 60.4629 30.1087 61.439 29.5188 62.0812C29.211 62.4408 28.8006 62.6206 28.3645 62.6206Z" fill="white"/>
<path d="M15.6786 77.2976H11.073C11.0403 76.9179 10.9532 76.5734 10.8117 76.2642C10.6756 75.955 10.4851 75.6892 10.2401 75.4668C10.0005 75.239 9.70929 75.0654 9.36632 74.9461C9.02335 74.8213 8.63411 74.759 8.1986 74.759C7.43644 74.759 6.79133 74.9434 6.26327 75.3122C5.74065 75.6811 5.34324 76.21 5.07104 76.8989C4.80429 77.5878 4.67091 78.415 4.67091 79.3805C4.67091 80.4003 4.80701 81.2546 5.07921 81.9435C5.35685 82.627 5.75698 83.1423 6.2796 83.4895C6.80222 83.8312 7.431 84.0021 8.16593 84.0021C8.58512 84.0021 8.96075 83.9506 9.29283 83.8475C9.62491 83.739 9.91344 83.5844 10.1584 83.3837C10.4034 83.183 10.6021 82.9416 10.7545 82.6596C10.9124 82.3721 11.0186 82.0493 11.073 81.6913L15.6786 81.7239C15.6242 82.429 15.4254 83.1477 15.0825 83.88C14.7395 84.6069 14.2523 85.2795 13.6208 85.8979C12.9947 86.5109 12.219 87.0045 11.2935 87.3788C10.368 87.753 9.29283 87.9402 8.06794 87.9402C6.53275 87.9402 5.15543 87.612 3.93598 86.9557C2.72198 86.2993 1.76112 85.3338 1.05341 84.059C0.351135 82.7843 0 81.2248 0 79.3805C0 77.5254 0.359301 75.9632 1.0779 74.6939C1.7965 73.4191 2.76553 72.4563 3.98497 71.8054C5.20442 71.149 6.56541 70.8209 8.06794 70.8209C9.12407 70.8209 10.0958 70.9646 10.9832 71.2521C11.8705 71.5396 12.649 71.96 13.3186 72.5133C13.9882 73.0611 14.5272 73.7365 14.9355 74.5393C15.3438 75.3421 15.5915 76.2615 15.6786 77.2976Z" fill="white"/>
<path d="M22.3114 80.6824V87.7124H17.8038V71.0487H22.1481V77.5905H22.2787C22.5618 76.7931 23.0327 76.172 23.6914 75.7272C24.3501 75.277 25.1422 75.0519 26.0677 75.0519C26.9551 75.0519 27.7254 75.2526 28.3787 75.654C29.0374 76.0554 29.5464 76.6087 29.9057 77.3138C30.2704 78.019 30.4501 78.8272 30.4446 79.7385V87.7124H25.937V80.6824C25.9425 80.064 25.7873 79.5785 25.4716 79.2259C25.1613 78.8733 24.7176 78.6971 24.1405 78.6971C23.7758 78.6971 23.4546 78.7784 23.177 78.9411C22.9048 79.0985 22.6924 79.3263 22.54 79.6246C22.393 79.9175 22.3168 80.2701 22.3114 80.6824Z" fill="white"/>
<path d="M38.68 87.9402C37.3408 87.9402 36.1866 87.6852 35.2176 87.1753C34.254 86.66 33.5109 85.9223 32.9883 84.9622C32.4711 83.9967 32.2126 82.8413 32.2126 81.496C32.2126 80.205 32.4739 79.0768 32.9965 78.1112C33.5191 77.1457 34.2568 76.3944 35.2095 75.8574C36.1621 75.3204 37.2863 75.0519 38.582 75.0519C39.5292 75.0519 40.3867 75.1983 41.1543 75.4912C41.9219 75.7842 42.5778 76.21 43.1222 76.7687C43.6666 77.322 44.0858 77.9946 44.3798 78.7866C44.6738 79.5785 44.8208 80.4708 44.8208 81.4635V82.505H33.6171V80.0314H40.6725C40.667 79.6734 40.5745 79.3588 40.3948 79.0876C40.2206 78.811 39.9838 78.5967 39.6844 78.4448C39.3904 78.2875 39.0556 78.2089 38.68 78.2089C38.3152 78.2089 37.9804 78.2875 37.6756 78.4448C37.3707 78.5967 37.1257 78.8083 36.9406 79.0795C36.761 79.3507 36.6657 79.668 36.6548 80.0314V82.7002C36.6548 83.1016 36.7392 83.4596 36.908 83.7743C37.0767 84.0889 37.319 84.3357 37.6347 84.5147C37.9505 84.6937 38.3316 84.7832 38.778 84.7832C39.0883 84.7832 39.3714 84.7398 39.6272 84.653C39.8885 84.5662 40.1117 84.4415 40.2968 84.2787C40.4819 84.1106 40.618 83.9099 40.7051 83.6766H44.8208C44.6792 84.5445 44.3444 85.2985 43.8163 85.9386C43.2883 86.5732 42.5887 87.0669 41.7177 87.4194C40.8521 87.7666 39.8395 87.9402 38.68 87.9402Z" fill="white"/>
<path d="M54.1728 75.2146V78.4692H45.7782V75.2146H54.1728ZM47.3787 87.7124V74.8566C47.3787 73.826 47.5638 72.9716 47.934 72.2936C48.3042 71.6155 48.8268 71.1084 49.5019 70.772C50.1769 70.4357 50.9717 70.2676 51.8863 70.2676C52.4579 70.2676 53.0132 70.311 53.5522 70.3978C54.0966 70.4846 54.4994 70.5605 54.7607 70.6256L54.1075 73.8477C53.9441 73.7988 53.7536 73.7609 53.5359 73.7338C53.3181 73.7012 53.1276 73.6849 52.9642 73.6849C52.5396 73.6849 52.2538 73.7744 52.1068 73.9534C51.9598 74.1324 51.8863 74.3684 51.8863 74.6613V87.7124H47.3787Z" fill="white"/>
<path d="M63.4248 75.2146V78.4692H55.0302V75.2146H63.4248ZM56.6307 87.7124V74.8566C56.6307 73.826 56.8158 72.9716 57.186 72.2936C57.5562 71.6155 58.0788 71.1084 58.7539 70.772C59.4289 70.4357 60.2237 70.2676 61.1383 70.2676C61.7099 70.2676 62.2652 70.311 62.8042 70.3978C63.3486 70.4846 63.7514 70.5605 64.0127 70.6256L63.3595 73.8477C63.1961 73.7988 63.0056 73.7609 62.7878 73.7338C62.5701 73.7012 62.3796 73.6849 62.2162 73.6849C61.7916 73.6849 61.5058 73.7744 61.3588 73.9534C61.2118 74.1324 61.1383 74.3684 61.1383 74.6613V87.7124H56.6307Z" fill="white"/>
<path d="M70.7925 87.9402C69.4533 87.9402 68.2992 87.6852 67.3301 87.1753C66.3666 86.66 65.6235 85.9223 65.1009 84.9622C64.5837 83.9967 64.3251 82.8413 64.3251 81.496C64.3251 80.205 64.5864 79.0768 65.109 78.1112C65.6316 77.1457 66.3693 76.3944 67.322 75.8574C68.2747 75.3204 69.3988 75.0519 70.6945 75.0519C71.6418 75.0519 72.4992 75.1983 73.2668 75.4912C74.0344 75.7842 74.6904 76.21 75.2348 76.7687C75.7792 77.322 76.1984 77.9946 76.4923 78.7866C76.7863 79.5785 76.9333 80.4708 76.9333 81.4635V82.505H65.7296V80.0314H72.785C72.7795 79.6734 72.687 79.3588 72.5073 79.0876C72.3331 78.811 72.0963 78.5967 71.7969 78.4448C71.5029 78.2875 71.1681 78.2089 70.7925 78.2089C70.4278 78.2089 70.093 78.2875 69.7881 78.4448C69.4832 78.5967 69.2383 78.8083 69.0532 79.0795C68.8735 79.3507 68.7782 79.668 68.7673 80.0314V82.7002C68.7673 83.1016 68.8517 83.4596 69.0205 83.7743C69.1893 84.0889 69.4315 84.3357 69.7473 84.5147C70.063 84.6937 70.4441 84.7832 70.8905 84.7832C71.2008 84.7832 71.4839 84.7398 71.7398 84.653C72.0011 84.5662 72.2243 84.4415 72.4094 84.2787C72.5945 84.1106 72.7306 83.9099 72.8177 83.6766H76.9333C76.7917 84.5445 76.4569 85.2985 75.9289 85.9386C75.4008 86.5732 74.7013 87.0669 73.8302 87.4194C72.9646 87.7666 71.9521 87.9402 70.7925 87.9402Z" fill="white"/>
<path d="M90.2376 79.2829H86.0893C86.0676 79.0279 85.9777 78.8083 85.8199 78.6238C85.662 78.4394 85.4578 78.2984 85.2074 78.2007C84.9624 78.0977 84.6902 78.0461 84.3908 78.0461C84.0043 78.0461 83.6722 78.1166 83.3946 78.2577C83.1169 78.3987 82.9808 78.5994 82.9863 78.8598C82.9808 79.0442 83.0598 79.2151 83.2231 79.3724C83.3919 79.5297 83.7158 79.6517 84.1948 79.7385L86.7426 80.1942C88.0274 80.4274 88.9828 80.8207 89.6088 81.374C90.2403 81.9218 90.5588 82.6568 90.5643 83.579C90.5588 84.4686 90.2921 85.2416 89.764 85.8979C89.2414 86.5488 88.5255 87.0533 87.6164 87.4113C86.7127 87.7639 85.681 87.9402 84.5215 87.9402C82.6052 87.9402 81.1054 87.5496 80.022 86.7685C78.9441 85.9874 78.3426 84.9568 78.2174 83.6766H82.6923C82.7522 84.0726 82.9482 84.3791 83.2803 84.5961C83.6178 84.8076 84.0424 84.9134 84.5541 84.9134C84.9679 84.9134 85.3081 84.8429 85.5749 84.7018C85.8471 84.5608 85.9859 84.3601 85.9913 84.0997C85.9859 83.8611 85.8661 83.6712 85.632 83.5302C85.4034 83.3891 85.0441 83.2752 84.5541 83.1884L82.333 82.7979C81.0537 82.5755 80.0955 82.1524 79.4586 81.5286C78.8217 80.9048 78.5059 80.102 78.5114 79.1202C78.5059 78.2523 78.7346 77.5173 79.1973 76.9151C79.6655 76.3076 80.3324 75.8465 81.1979 75.5319C82.069 75.2119 83.1006 75.0519 84.2928 75.0519C86.1057 75.0519 87.5347 75.4262 88.5799 76.1747C89.6306 76.9233 90.1832 77.9593 90.2376 79.2829Z" fill="white"/>
<path d="M99.7714 75.2146V78.4692H91.5074V75.2146H99.7714ZM93.108 72.2204H97.6155V83.6929C97.6155 83.8665 97.6455 84.0129 97.7054 84.1323C97.7653 84.2462 97.8578 84.333 97.983 84.3926C98.1082 84.4469 98.2688 84.474 98.4648 84.474C98.6009 84.474 98.7588 84.4577 98.9384 84.4252C99.1235 84.3926 99.2596 84.3655 99.3467 84.3438L100 87.5008C99.7986 87.5605 99.51 87.6337 99.1344 87.7205C98.7642 87.8073 98.3233 87.8642 97.8115 87.8914C96.7772 87.9456 95.9089 87.8398 95.2066 87.574C94.5043 87.3028 93.9763 86.877 93.6224 86.2966C93.2686 85.7162 93.0971 84.9893 93.108 84.116V72.2204Z" fill="white"/>
<path d="M50.4202 93.5505H2.79996C2.42213 93.5505 2.10028 93.2343 2.10028 92.8492C2.10028 92.4642 2.42213 92.1479 2.79996 92.1479H50.4202C50.812 92.1479 51.1199 92.4642 51.1199 92.8492C51.1199 93.2343 50.812 93.5505 50.4202 93.5505Z" fill="white"/>
<path d="M50.4212 96.917H40.0571C39.6789 96.917 39.3568 96.6038 39.3568 96.2089C39.3568 95.8276 39.6789 95.5144 40.0571 95.5144H50.4212C50.8134 95.5144 51.1215 95.8276 51.1215 96.2089C51.1215 96.6038 50.8134 96.917 50.4212 96.917Z" fill="white"/>
<path d="M53.0822 96.8516V92.4021H56.0585V93.1777H54.0326V94.238H55.861V95.0136H54.0326V96.8516H53.0822Z" fill="white"/>
<path d="M57.5993 96.9146C57.3842 96.9146 57.1925 96.8776 57.0242 96.8038C56.856 96.7285 56.7228 96.6177 56.6248 96.4714C56.5282 96.3236 56.4799 96.1397 56.4799 95.9195C56.4799 95.7341 56.5143 95.5784 56.5831 95.4524C56.6518 95.3264 56.7455 95.225 56.864 95.1483C56.9825 95.0715 57.1172 95.0136 57.2679 94.9745C57.4201 94.9354 57.5796 94.9078 57.7464 94.8919C57.9424 94.8716 58.1005 94.8528 58.2205 94.8354C58.3405 94.8166 58.4275 94.7891 58.4817 94.7529C58.5358 94.7167 58.5629 94.6631 58.5629 94.5921V94.5791C58.5629 94.4415 58.519 94.335 58.4312 94.2597C58.3448 94.1844 58.2219 94.1467 58.0624 94.1467C57.8942 94.1467 57.7603 94.1836 57.6608 94.2575C57.5613 94.3299 57.4954 94.4212 57.4632 94.5313L56.5984 94.4617C56.6423 94.259 56.7287 94.0837 56.8574 93.936C56.9862 93.7868 57.1523 93.6724 57.3557 93.5927C57.5605 93.5116 57.7976 93.471 58.0668 93.471C58.2541 93.471 58.4334 93.4928 58.6046 93.5362C58.7772 93.5797 58.9301 93.647 59.0633 93.7383C59.1979 93.8295 59.304 93.9468 59.3816 94.0902C59.4591 94.2322 59.4979 94.4024 59.4979 94.6008V96.8516H58.6112V96.3888H58.5848C58.5307 96.4931 58.4582 96.5851 58.3675 96.6647C58.2768 96.7429 58.1678 96.8045 58.0405 96.8494C57.9132 96.8928 57.7661 96.9146 57.5993 96.9146ZM57.8671 96.2758C58.0046 96.2758 58.1261 96.249 58.2314 96.1955C58.3368 96.1404 58.4195 96.0665 58.4795 95.9738C58.5395 95.8812 58.5695 95.7761 58.5695 95.6588V95.3047C58.5402 95.3235 58.4999 95.3409 58.4487 95.3568C58.399 95.3713 58.3426 95.3851 58.2797 95.3981C58.2168 95.4097 58.1539 95.4206 58.091 95.4307C58.028 95.4394 57.971 95.4474 57.9198 95.4546C57.81 95.4705 57.7142 95.4959 57.6322 95.5306C57.5503 95.5654 57.4866 95.6125 57.4413 95.6719C57.3959 95.7298 57.3732 95.8022 57.3732 95.8891C57.3732 96.0151 57.4193 96.1114 57.5115 96.1781C57.6052 96.2432 57.7237 96.2758 57.8671 96.2758Z" fill="white"/>
<path d="M63.0284 94.4661L62.1724 94.5182C62.1577 94.4458 62.1263 94.3806 62.078 94.3227C62.0297 94.2633 61.9661 94.2162 61.887 94.1815C61.8095 94.1453 61.7166 94.1272 61.6083 94.1272C61.4634 94.1272 61.3412 94.1576 61.2417 94.2184C61.1422 94.2778 61.0925 94.3575 61.0925 94.4574C61.0925 94.5371 61.1247 94.6044 61.1891 94.6594C61.2534 94.7145 61.3639 94.7587 61.5205 94.792L62.1307 94.9136C62.4584 94.9803 62.7028 95.0874 62.8638 95.2352C63.0247 95.3829 63.1052 95.577 63.1052 95.8174C63.1052 96.0361 63.0401 96.228 62.9099 96.3932C62.7811 96.5583 62.604 96.6872 62.3787 96.7799C62.1548 96.8711 61.8965 96.9167 61.6039 96.9167C61.1576 96.9167 60.802 96.8248 60.5372 96.6408C60.2738 96.4554 60.1194 96.2034 60.0741 95.8848L60.9937 95.837C61.0215 95.9717 61.0888 96.0745 61.1956 96.1455C61.3025 96.215 61.4393 96.2498 61.6061 96.2498C61.77 96.2498 61.9017 96.2186 62.0012 96.1563C62.1021 96.0926 62.1534 96.0108 62.1548 95.9108C62.1534 95.8268 62.1175 95.758 62.0473 95.7045C61.977 95.6494 61.8687 95.6074 61.7224 95.5784L61.1386 95.4633C60.8093 95.3981 60.5642 95.2851 60.4033 95.1244C60.2438 94.9636 60.164 94.7587 60.164 94.5095C60.164 94.2952 60.2226 94.1105 60.3396 93.9555C60.4582 93.8006 60.6242 93.6811 60.8379 93.5971C61.053 93.513 61.3047 93.471 61.5929 93.471C62.0187 93.471 62.3538 93.5601 62.5982 93.7383C62.844 93.9164 62.9874 94.159 63.0284 94.4661Z" fill="white"/>
<path d="M65.4872 93.5145V94.2097H63.4569V93.5145H65.4872ZM63.9179 92.715H64.8529V95.8261C64.8529 95.9116 64.8661 95.9782 64.8924 96.026C64.9187 96.0723 64.9553 96.1049 65.0021 96.1238C65.0504 96.1426 65.106 96.152 65.169 96.152C65.2129 96.152 65.2568 96.1484 65.3006 96.1411C65.3445 96.1324 65.3782 96.1259 65.4016 96.1216L65.5487 96.8103C65.5018 96.8248 65.436 96.8414 65.3511 96.8603C65.2663 96.8805 65.1631 96.8928 65.0417 96.8972C64.8163 96.9059 64.6188 96.8762 64.449 96.8081C64.2808 96.74 64.1498 96.6343 64.0561 96.4909C63.9625 96.3475 63.9164 96.1665 63.9179 95.9478V92.715Z" fill="white"/>
<path d="M69.3398 93.5145V94.2097H67.259V93.5145H69.3398ZM67.7353 96.8516V93.2733C67.7353 93.0315 67.7829 92.8309 67.878 92.6715C67.9746 92.5122 68.1063 92.3927 68.2731 92.3131C68.4399 92.2334 68.6294 92.1936 68.8416 92.1936C68.985 92.1936 69.1159 92.2044 69.2344 92.2262C69.3544 92.2479 69.4437 92.2674 69.5022 92.2848L69.3354 92.98C69.2988 92.9685 69.2535 92.9576 69.1993 92.9475C69.1467 92.9373 69.0925 92.9322 69.0369 92.9322C68.8994 92.9322 68.8035 92.9641 68.7494 93.0278C68.6952 93.0901 68.6682 93.1777 68.6682 93.2907V96.8516H67.7353Z" fill="white"/>
<path d="M71.3136 96.9167C70.9726 96.9167 70.6778 96.8451 70.429 96.7017C70.1817 96.5568 69.9908 96.3555 69.8562 96.0977C69.7215 95.8384 69.6542 95.5379 69.6542 95.1961C69.6542 94.8514 69.7215 94.5501 69.8562 94.2923C69.9908 94.033 70.1817 93.8317 70.429 93.6883C70.6778 93.5435 70.9726 93.471 71.3136 93.471C71.6545 93.471 71.9486 93.5435 72.1959 93.6883C72.4447 93.8317 72.6364 94.033 72.771 94.2923C72.9056 94.5501 72.9729 94.8514 72.9729 95.1961C72.9729 95.5379 72.9056 95.8384 72.771 96.0977C72.6364 96.3555 72.4447 96.5568 72.1959 96.7017C71.9486 96.8451 71.6545 96.9167 71.3136 96.9167ZM71.318 96.1998C71.4731 96.1998 71.6026 96.1563 71.7065 96.0694C71.8103 95.9811 71.8886 95.8609 71.9413 95.7088C71.9954 95.5567 72.0225 95.3836 72.0225 95.1896C72.0225 94.9955 71.9954 94.8224 71.9413 94.6703C71.8886 94.5182 71.8103 94.398 71.7065 94.3097C71.6026 94.2213 71.4731 94.1771 71.318 94.1771C71.1614 94.1771 71.0297 94.2213 70.9229 94.3097C70.8175 94.398 70.7378 94.5182 70.6836 94.6703C70.631 94.8224 70.6046 94.9955 70.6046 95.1896C70.6046 95.3836 70.631 95.5567 70.6836 95.7088C70.7378 95.8609 70.8175 95.9811 70.9229 96.0694C71.0297 96.1563 71.1614 96.1998 71.318 96.1998Z" fill="white"/>
<path d="M75.1041 96.9167C74.7632 96.9167 74.4684 96.8451 74.2196 96.7017C73.9723 96.5568 73.7814 96.3555 73.6467 96.0977C73.5121 95.8384 73.4448 95.5379 73.4448 95.1961C73.4448 94.8514 73.5121 94.5501 73.6467 94.2923C73.7814 94.033 73.9723 93.8317 74.2196 93.6883C74.4684 93.5435 74.7632 93.471 75.1041 93.471C75.4451 93.471 75.7392 93.5435 75.9865 93.6883C76.2353 93.8317 76.4269 94.033 76.5616 94.2923C76.6962 94.5501 76.7635 94.8514 76.7635 95.1961C76.7635 95.5379 76.6962 95.8384 76.5616 96.0977C76.4269 96.3555 76.2353 96.5568 75.9865 96.7017C75.7392 96.8451 75.4451 96.9167 75.1041 96.9167ZM75.1085 96.1998C75.2636 96.1998 75.3931 96.1563 75.497 96.0694C75.6009 95.9811 75.6792 95.8609 75.7319 95.7088C75.786 95.5567 75.8131 95.3836 75.8131 95.1896C75.8131 94.9955 75.786 94.8224 75.7319 94.6703C75.6792 94.5182 75.6009 94.398 75.497 94.3097C75.3931 94.2213 75.2636 94.1771 75.1085 94.1771C74.952 94.1771 74.8203 94.2213 74.7135 94.3097C74.6081 94.398 74.5284 94.5182 74.4742 94.6703C74.4215 94.8224 74.3952 94.9955 74.3952 95.1896C74.3952 95.3836 74.4215 95.5567 74.4742 95.7088C74.5284 95.8609 74.6081 95.9811 74.7135 96.0694C74.8203 96.1563 74.952 96.1998 75.1085 96.1998Z" fill="white"/>
<path d="M78.6138 96.9059C78.3577 96.9059 78.1258 96.8407 77.918 96.7104C77.7117 96.5785 77.5478 96.3852 77.4263 96.1303C77.3064 95.8739 77.2464 95.5596 77.2464 95.1874C77.2464 94.805 77.3086 94.4871 77.4329 94.2336C77.5573 93.9787 77.7227 93.7882 77.929 93.6622C78.1368 93.5348 78.3643 93.471 78.6116 93.471C78.8004 93.471 78.9577 93.5029 79.0835 93.5666C79.2108 93.6289 79.3132 93.7071 79.3908 93.8013C79.4698 93.894 79.5298 93.9852 79.5708 94.075H79.5993V92.4021H80.5321V96.8516H79.6103V96.3171H79.5708C79.5269 96.4098 79.4647 96.5018 79.3842 96.593C79.3052 96.6828 79.202 96.7574 79.0747 96.8168C78.9489 96.8762 78.7952 96.9059 78.6138 96.9059ZM78.9101 96.1694C79.0608 96.1694 79.1881 96.1288 79.292 96.0477C79.3974 95.9652 79.4778 95.85 79.5334 95.7023C79.5905 95.5545 79.619 95.3815 79.619 95.183C79.619 94.9846 79.5912 94.8122 79.5356 94.666C79.48 94.5197 79.3996 94.4067 79.2942 94.327C79.1888 94.2474 79.0608 94.2075 78.9101 94.2075C78.7565 94.2075 78.627 94.2488 78.5216 94.3314C78.4162 94.4139 78.3365 94.5284 78.2824 94.6747C78.2282 94.8209 78.2011 94.9904 78.2011 95.183C78.2011 95.3771 78.2282 95.5487 78.2824 95.6979C78.338 95.8457 78.4177 95.9615 78.5216 96.0455C78.627 96.1281 78.7565 96.1694 78.9101 96.1694Z" fill="white"/>
<path d="M84.1098 96.9167C83.7996 96.9167 83.5318 96.8617 83.3065 96.7516C83.0811 96.6416 82.9077 96.4924 82.7863 96.3041C82.6663 96.1143 82.6063 95.9029 82.6063 95.6697C82.6063 95.4959 82.6414 95.3416 82.7117 95.2069C82.7819 95.0722 82.8799 94.9484 83.0058 94.8354C83.1316 94.721 83.2779 94.6073 83.4448 94.4943L84.3161 93.9273C84.4288 93.8563 84.5115 93.7817 84.5641 93.7035C84.6168 93.6238 84.6432 93.5377 84.6432 93.445C84.6432 93.3566 84.6073 93.2748 84.5356 93.1995C84.4639 93.1242 84.3622 93.0872 84.2305 93.0887C84.1427 93.0887 84.0666 93.1082 84.0023 93.1473C83.9379 93.185 83.8874 93.235 83.8508 93.2972C83.8157 93.3581 83.7981 93.4261 83.7981 93.5015C83.7981 93.5942 83.8245 93.6883 83.8771 93.7839C83.9298 93.8795 84.0001 93.9809 84.0879 94.0881C84.1757 94.1938 84.2715 94.3082 84.3754 94.4313L86.5066 96.8516H85.5321L83.7542 94.8919C83.6372 94.7601 83.5201 94.6225 83.403 94.4791C83.2875 94.3343 83.1909 94.1808 83.1133 94.0185C83.0358 93.8549 82.997 93.6774 82.997 93.4863C82.997 93.2704 83.0475 93.0764 83.1484 92.904C83.2509 92.7316 83.3943 92.5955 83.5786 92.4956C83.763 92.3942 83.9781 92.3435 84.2239 92.3435C84.4639 92.3435 84.671 92.392 84.8451 92.489C85.0207 92.5846 85.1553 92.7121 85.249 92.8714C85.3441 93.0293 85.3916 93.2031 85.3916 93.3928C85.3916 93.6028 85.3389 93.7933 85.2336 93.9642C85.1297 94.1337 84.9834 94.2858 84.7946 94.4205L83.8771 95.0744C83.7528 95.1642 83.6606 95.2562 83.6006 95.3503C83.5421 95.443 83.5128 95.5321 83.5128 95.6175C83.5128 95.7233 83.5391 95.8181 83.5918 95.9022C83.6445 95.9862 83.7191 96.0528 83.8157 96.102C83.9123 96.1498 84.0257 96.1737 84.1559 96.1737C84.3139 96.1737 84.4698 96.1382 84.6234 96.0673C84.7785 95.9949 84.919 95.8927 85.0448 95.7609C85.1721 95.6277 85.2738 95.4698 85.3499 95.2873C85.426 95.1048 85.4641 94.9028 85.4641 94.6812H86.2389C86.2389 94.9535 86.2089 95.199 86.1489 95.4177C86.0889 95.6349 86.0055 95.8247 85.8986 95.9869C85.7918 96.1477 85.6696 96.2795 85.5321 96.3823C85.4882 96.4098 85.4458 96.4359 85.4048 96.4605C85.3638 96.4851 85.3214 96.5112 85.2775 96.5387C85.1107 96.672 84.9241 96.7683 84.7178 96.8277C84.5129 96.8871 84.3103 96.9167 84.1098 96.9167Z" fill="white"/>
<path d="M91.325 93.8404C91.2942 93.7347 91.2511 93.6412 91.1955 93.5601C91.1399 93.4776 91.0718 93.408 90.9914 93.3516C90.9123 93.2936 90.8216 93.2494 90.7192 93.219C90.6182 93.1886 90.5063 93.1734 90.3834 93.1734C90.1536 93.1734 89.9517 93.2299 89.7776 93.3429C89.6049 93.4558 89.4703 93.6202 89.3737 93.836C89.2771 94.0504 89.2288 94.3126 89.2288 94.6225C89.2288 94.9325 89.2764 95.1961 89.3715 95.4133C89.4666 95.6306 89.6012 95.7964 89.7754 95.9108C89.9495 96.0238 90.1551 96.0803 90.3921 96.0803C90.6072 96.0803 90.7909 96.0426 90.9431 95.9673C91.0967 95.8906 91.2138 95.7827 91.2942 95.6436C91.3762 95.5046 91.4172 95.3402 91.4172 95.1504L91.6103 95.1787H90.4514V94.4704H92.3324V95.031C92.3324 95.422 92.249 95.758 92.0822 96.039C91.9154 96.3186 91.6857 96.5344 91.393 96.6865C91.1004 96.8371 90.7653 96.9124 90.3878 96.9124C89.9663 96.9124 89.5961 96.8204 89.2771 96.6365C88.9581 96.4511 88.7094 96.1882 88.5309 95.8478C88.3538 95.506 88.2653 95.1005 88.2653 94.6312C88.2653 94.2706 88.318 93.949 88.4233 93.6666C88.5301 93.3827 88.6794 93.1423 88.8711 92.9453C89.0628 92.7483 89.2859 92.5984 89.5405 92.4956C89.7951 92.3927 90.071 92.3413 90.368 92.3413C90.6226 92.3413 90.8597 92.3782 91.0791 92.4521C91.2986 92.5245 91.4932 92.6274 91.663 92.7606C91.8342 92.8939 91.9739 93.0525 92.0822 93.2364C92.1905 93.4189 92.26 93.6202 92.2907 93.8404H91.325Z" fill="white"/>
<path d="M93.0288 96.8516V93.5145H93.9353V94.0967H93.9704C94.0318 93.8896 94.135 93.7332 94.2799 93.6275C94.4247 93.5203 94.5915 93.4667 94.7803 93.4667C94.8271 93.4667 94.8776 93.4696 94.9317 93.4754C94.9859 93.4812 95.0334 93.4892 95.0744 93.4993V94.3205C95.0305 94.3075 94.9698 94.2959 94.8922 94.2858C94.8147 94.2756 94.7437 94.2706 94.6793 94.2706C94.5418 94.2706 94.4189 94.3002 94.3106 94.3596C94.2038 94.4176 94.1189 94.4987 94.056 94.603C93.9945 94.7072 93.9638 94.8275 93.9638 94.9636V96.8516H93.0288Z" fill="white"/>
<path d="M95.5578 96.8516V93.5145H96.4929V96.8516H95.5578ZM96.0275 93.0843C95.8885 93.0843 95.7693 93.0387 95.6698 92.9475C95.5717 92.8548 95.5227 92.744 95.5227 92.6151C95.5227 92.4876 95.5717 92.3782 95.6698 92.287C95.7693 92.1943 95.8885 92.1479 96.0275 92.1479C96.1665 92.1479 96.2851 92.1943 96.3831 92.287C96.4826 92.3782 96.5324 92.4876 96.5324 92.6151C96.5324 92.744 96.4826 92.8548 96.3831 92.9475C96.2851 93.0387 96.1665 93.0843 96.0275 93.0843Z" fill="white"/>
<path d="M98.1769 92.4021V96.8516H97.2419V92.4021H98.1769Z" fill="white"/>
<path d="M99.8609 92.4021V96.8516H98.9259V92.4021H99.8609Z" fill="white"/>
</svg>
